<svg xmlns:svg="http://www.w3.org/2000/svg" xmlns="http://www.w3.org/2000/svg" version="1.0" width="1024" height="306" viewBox="-1.21716924 -1.21716924 144.11596848 43.00664648"><defs/><path d="M 52.8 35.1 C 54.3 35 56.6 34.6 56.5 32.5 C 56.4 28.3 43.3 31 43 20.9 C 42.7 15 47.6 11.9 52.7 11.7 C 56.8 11.5 60 12.9 62.6 16.2 L 58.4 19.7 C 56.5 17.8 55.5 16.9 52.8 17 C 51.6 17.1 49.9 17.9 49.9 19.3 C 50.1 23.6 63.2 20.6 63.6 30.8 C 63.8 36.8 59.4 40.4 54 40.6 C 49.1 40.7 44.7 39.5 41.8 35.1 L 46.4 31.5 C 48.2 34.1 49.6 35.2 52.8 35.1" style="fill:#00518f;fill-opacity:1;fill-rule:nonzero;stroke:none"/><path d="M 18 33.8 L 7 33.8 L 7 29.1 L 16.7 29.1 L 16.7 22.9 L 7 22.9 L 7 18.1 L 18 18.1 L 18 12 L 3.5 12 C 1.6 12 0 13.5 0 15.5 L 0 36.4 C 0 38.4 1.6 39.9 3.5 39.9 C 3.6 39.9 3.8 39.9 3.9 39.9 L 18 39.9" style="fill:#00518f;fill-opacity:1;fill-rule:nonzero;stroke:none"/><path d="M 62.9 12 L 62.9 18.3 L 68 18.3 L 68 39.9 L 75.9 39.9 L 75.9 18.3 L 81.4 18.3 L 81.4 12" style="fill:#00518f;fill-opacity:1;fill-rule:nonzero;stroke:none"/><path d="M 124.9 0 C 126.3 0 127.5 0.5 128.5 1.5 C 129.5 2.6 130 3.8 130 5.2 C 130 6.7 129.5 7.9 128.5 9 C 127.5 10 126.3 10.5 124.9 10.5 C 123.4 10.5 122.2 10 121.3 9 C 120.2 7.9 119.7 6.7 119.7 5.2 C 119.7 3.8 120.2 2.6 121.2 1.6 C 122.2 0.5 123.4 0 124.9 0" style="fill:#e2001a;fill-opacity:1;fill-rule:nonzero;stroke:none"/><path d="M 114.9 39.9 L 114.9 39.9 L 113.5 39.9 L 112.8 39.9 C 112.8 39.9 112.5 39.9 112.1 39.8 C 111.8 39.7 111.4 39.6 111.4 39.6 C 111.4 39.6 111.1 39.6 110.8 39.4 C 110.6 39.3 110.3 39.2 110.3 39.2 C 110.3 39.2 109.9 39 109.5 38.7 C 109.1 38.4 108.7 37.9 108.7 37.9 L 108.4 37.5 L 108.2 37.1 L 108 36.6 L 107.8 36.2 L 107.8 36.1 L 107.7 35.7 L 107.6 34.9 L 107.6 33.2 C 107.6 32.4 107.6 31.9 107.6 31.7 L 120.5 31.7 L 133.4 31.7 L 133.4 29.9 L 107.6 29.9 L 107.5 17.6 L 107.5 17.4 L 107.6 16.5 C 107.6 16.5 107.6 16.3 107.7 16 C 107.8 15.6 107.9 15.5 107.9 15.5 C 107.9 15.5 108 15.2 108.1 15 C 108.3 14.7 108.3 14.5 108.3 14.5 C 108.3 14.5 108.5 14.3 108.7 14 C 109 13.7 109.2 13.5 109.2 13.5 L 109.8 13 C 109.8 13 109.9 12.9 110.1 12.8 C 110.4 12.6 110.6 12.6 110.6 12.6 C 110.6 12.6 111.1 12.4 111.7 12.2 C 112.3 12 112.9 12 112.9 12 L 116.7 12 L 124 12 L 131.5 12 L 136.1 12 C 136.1 12 136.8 12.1 137.7 12.4 C 138.4 12.6 138.7 12.9 138.7 12.9 C 138.7 12.9 139 13 139.4 13.3 C 139.8 13.5 140 13.7 140 13.7 L 140.5 14.2 C 140.5 14.2 140.9 14.6 141.1 15 C 141.3 15.5 141.4 15.7 141.4 15.7 C 141.4 15.7 141.6 16.2 141.6 16.9 C 141.7 17.5 141.7 18.1 141.7 18.1 L 141.7 20.6 L 128.9 20.6 L 115.9 20.6 L 115.9 21.4 L 115.9 22.6 L 141.7 22.6 L 141.7 28.8 L 141.7 35.1 C 141.6 35.6 141.4 36 141.3 36.3 C 141.2 36.9 141 37.2 141 37.2 C 141 37.2 140.8 37.6 140.2 38.2 C 139.7 38.8 139.2 39 139.2 39 L 139.2 39.1 C 139.2 39.1 138.7 39.3 138.2 39.5 C 137.7 39.7 137.3 39.8 137.3 39.8 C 137.3 39.8 137.1 39.9 136.9 39.9 C 136.6 39.9 136.3 39.9 136.3 39.9 L 132.2 39.9 L 125.8 39.9 L 119.3 39.9 L 114.9 39.9" style="fill:#e2001a;fill-opacity:1;fill-rule:nonzero;stroke:none"/><path d="M 100.5 33.8 L 89.5 33.8 L 89.5 29.1 L 99.3 29.1 L 99.3 22.9 L 89.5 22.9 L 89.5 18.1 L 100.5 18.1 L 100.5 12 L 86 12 C 84.1 12 82.5 13.6 82.5 15.5 L 82.5 36.4 C 82.5 38.4 84.1 39.9 86 39.9 C 86.2 39.9 86.3 39.9 86.5 39.9 L 100.5 39.9" style="fill:#00518f;fill-opacity:1;fill-rule:nonzero;stroke:none"/><path d="M 34.8 39.9 L 42.7 39.9 L 36.9 27.3 L 36.9 27.4 C 39.6 26.2 41.3 23.4 41.3 20.1 C 41.3 14.3 37.2 12 32.6 12 L 20.1 12 L 20.1 39.9 L 27.1 39.9 L 27.1 29.1 L 30.2 29.1 L 34.8 39.9 z M 27.1 17.2 L 30.3 17.2 C 32.1 17.2 34.2 17.7 34.2 20.2 C 34.2 22.9 31.8 23.1 29.8 23.1 C 28.9 23.1 28 23.1 27.1 23.1" style="fill:#00518f;fill-opacity:1;fill-rule:evenodd;stroke:none"/></svg>