<svg xmlns="http://www.w3.org/2000/svg" viewBox="0 0 391.7 80.5"><title>BeeOne</title><path d="M354.5 43.3c.8-8.1 4.2-11.8 10.7-11.8 6.2 0 9 3.5 9.7 11.8h-20.4zm37.2 10c-.1-10.2-1.3-15-4.7-20.7-4.3-7.5-13-12.2-22.6-12.2-16.5 0-27.9 12.5-27.9 30.6 0 17.7 11.4 29.5 28.4 29.5 13.5 0 21.9-6.3 26.3-20l-15.5-1.1c-1.2 5.9-4.7 9-10.3 9-6.7 0-11.1-4.9-11.1-12.4 0-.5 0-1.6.1-2.7h37.3zm-66 25.9v-37c0-7-.9-11.8-2.8-14.9-2.8-4.5-8.2-7-14.5-7-8.3 0-12.1 2.5-17.1 10.9v-9.7h-15.8v57.7h17V46.8c0-8.5 3.2-13.2 8.9-13.2 2.8 0 4.8 1.1 6 3 1.2 1.9 1.4 3.5 1.4 10.2v32.4h16.9zm-94.4-64.3c9.5 0 14 8.4 14 25.4s-4.6 25.3-13.9 25.3c-9.7 0-14.5-8.4-14.5-25.4 0-7.3 1.3-14.1 3.4-18.5 2.2-4.6 5.8-6.8 11-6.8m.1-14.9c-10.5 0-19.1 4-24.8 11.4-5.6 7.3-8.8 17.4-8.8 28.6 0 11.4 3.2 21.5 9 29.3 5.6 7.5 13.8 11.2 24 11.2 10.5 0 19.4-4.1 24.9-11.4 5.4-7.3 8.7-18.1 8.7-28.3 0-11.2-3.2-21.5-8.9-29.4C249.9 3.7 241.9 0 231.4 0m-78.6 43.3c.8-8.1 4.2-11.8 10.7-11.8 6.2 0 9 3.5 9.7 11.8h-20.4zm37.1 10c-.1-10.2-1.3-15-4.7-20.7-4.3-7.5-13-12.2-22.6-12.2-16.5 0-27.9 12.5-27.9 30.6 0 17.7 11.4 29.5 28.5 29.5 13.5 0 21.9-6.3 26.3-20L174 59.4c-1.2 5.9-4.7 9-10.3 9-6.7 0-11.1-4.9-11.1-12.4 0-.5 0-1.6.1-2.7h37.2zm-99.7-10c.8-8.1 4.2-11.8 10.7-11.8 6.2 0 9 3.5 9.7 11.8H90.2zm37.1 10c-.1-10.2-1.3-15-4.7-20.7-4.3-7.5-13-12.2-22.6-12.2-16.5 0-27.9 12.5-27.9 30.6 0 17.7 11.4 29.5 28.4 29.5 13.5 0 21.9-6.3 26.3-20l-15.5-1.1c-1.2 5.9-4.7 9-10.3 9-6.7 0-11.1-4.9-11.1-12.4 0-.5 0-1.6.1-2.7h37.3zM18.3 46h14.9c7.8 0 12.3 3.4 12.3 9.2 0 3.2-1.6 6.3-4.1 8-2 1.2-4.2 1.6-9 1.6h-14V46zm0-31h12.5c6.8 0 8.2.2 10.2 2.1 1.8 1.4 2.7 3.7 2.7 6.2 0 2.8-1.3 5.5-3.4 7-1.8 1.3-3.7 1.8-8.2 1.8H18.3V15zM0 1.2v78h36.4c9.7 0 16-1.8 21-5.9 4.5-3.9 7.1-9.6 7.1-15.6 0-5.5-2.3-10.8-6.3-14.4-2.7-2.5-5-3.5-10-4.8 9.6-2.9 14.2-8.5 14.2-17.3 0-6.1-2.5-11.4-7.3-15.1-4.6-3.7-9.5-5-18.7-5H0z" fill="#005593"/></svg>