<svg xmlns:svg="http://www.w3.org/2000/svg" xmlns="http://www.w3.org/2000/svg" version="1.1" viewBox="-1.2171692 -1.2171692 141.7 40.549792"><path d="m 51.6 33.9 c 1.5 -0.1 3.8 -0.5 3.7 -2.6 -0.1 -4.2 -13.2 -1.5 -13.5 -11.6 -0.3 -5.9 4.6 -9 9.7 -9.2 4.1 -0.2 7.3 1.2 9.9 4.5 l -4.2 3.5 c -1.9 -1.9 -2.9 -2.8 -5.6 -2.7 -1.2 0.1 -2.9 0.9 -2.9 2.3 0.2 4.3 13.3 1.3 13.7 11.5 0.2 6 -4.2 9.6 -9.6 9.8 -4.9 0.1 -9.3 -1.1 -12.2 -5.5 l 4.6 -3.6 c 1.8 2.6 3.2 3.7 6.4 3.6" style="fill:#00518f"/><path d="m 16.8 32.6 -11 0 0 -4.7 9.7 0 0 -6.2 -9.7 0 0 -4.8 11 0 0 -6.1 -14.5 0 c -1.9 0 -3.5 1.5 -3.5 3.5 l 0 20.9 c 0 2 1.6 3.5 3.5 3.5 0.1 0 0.3 0 0.4 0 l 14.1 0" style="fill:#00518f"/><path d="m 61.7 10.8 0 6.3 5.1 0 0 21.6 7.9 0 0 -21.6 5.5 0 0 -6.3" style="fill:#00518f"/><path d="m 123.7 -1.2 c 1.4 0 2.6 0.5 3.6 1.5 1 1.1 1.5 2.3 1.5 3.7 0 1.5 -0.5 2.7 -1.5 3.8 -1 1 -2.2 1.5 -3.6 1.5 -1.5 0 -2.7 -0.5 -3.6 -1.5 -1.1 -1.1 -1.6 -2.3 -1.6 -3.8 0 -1.4 0.5 -2.6 1.5 -3.6 1 -1.1 2.2 -1.6 3.7 -1.6" style="fill:#e2001a"/><path d="m 113.7 38.7 0 0 -1.4 0 -0.7 0 c 0 0 -0.3 0 -0.7 -0.1 -0.3 -0.1 -0.7 -0.2 -0.7 -0.2 0 0 -0.3 0 -0.6 -0.2 -0.2 -0.1 -0.5 -0.2 -0.5 -0.2 0 0 -0.4 -0.2 -0.8 -0.5 -0.4 -0.3 -0.8 -0.8 -0.8 -0.8 l -0.3 -0.4 -0.2 -0.4 -0.2 -0.5 -0.2 -0.4 0 -0.1 -0.1 -0.4 -0.1 -0.8 0 -1.7 c 0 -0.8 0 -1.3 0 -1.5 l 12.9 0 12.9 0 0 -1.8 -25.8 0 -0.1 -12.3 0 -0.2 0.1 -0.9 c 0 0 0 -0.2 0.1 -0.5 0.1 -0.4 0.2 -0.5 0.2 -0.5 0 0 0.1 -0.3 0.2 -0.5 0.2 -0.3 0.2 -0.5 0.2 -0.5 0 0 0.2 -0.2 0.4 -0.5 0.3 -0.3 0.5 -0.5 0.5 -0.5 l 0.6 -0.5 c 0 0 0.1 -0.1 0.3 -0.2 0.3 -0.2 0.5 -0.2 0.5 -0.2 0 0 0.5 -0.2 1.1 -0.4 0.6 -0.2 1.2 -0.2 1.2 -0.2 l 3.8 0 7.3 0 7.5 0 4.6 0 c 0 0 0.7 0.1 1.6 0.4 0.7 0.2 1 0.5 1 0.5 0 0 0.3 0.1 0.7 0.4 0.4 0.2 0.6 0.4 0.6 0.4 l 0.5 0.5 c 0 0 0.4 0.4 0.6 0.8 0.2 0.5 0.3 0.7 0.3 0.7 0 0 0.2 0.5 0.2 1.2 0.1 0.6 0.1 1.2 0.1 1.2 l 0 2.5 -12.8 0 -13 0 0 0.8 0 1.2 25.8 0 0 6.2 0 6.3 c -0.1 0.5 -0.3 0.9 -0.4 1.2 -0.1 0.6 -0.3 0.9 -0.3 0.9 0 0 -0.2 0.4 -0.8 1 -0.5 0.6 -1 0.8 -1 0.8 l 0 0.1 c 0 0 -0.5 0.2 -1 0.4 -0.5 0.2 -0.9 0.3 -0.9 0.3 0 0 -0.2 0.1 -0.4 0.1 -0.3 0 -0.6 0 -0.6 0 l -4.1 0 -6.4 0 -6.5 0 -4.4 0" style="fill:#e2001a"/><path d="m 99.3 32.6 -11 0 0 -4.7 9.8 0 0 -6.2 -9.8 0 0 -4.8 11 0 0 -6.1 -14.5 0 c -1.9 0 -3.5 1.6 -3.5 3.5 l 0 20.9 c 0 2 1.6 3.5 3.5 3.5 0.2 0 0.3 0 0.5 0 l 14 0" style="fill:#00518f"/><path d="m 33.6 38.7 7.9 0 -5.8 -12.6 0 0.1 c 2.7 -1.2 4.4 -4 4.4 -7.3 0 -5.8 -4.1 -8.1 -8.7 -8.1 l -12.5 0 0 27.9 7 0 0 -10.8 3.1 0 4.6 10.8 z m -7.7 -22.7 3.2 0 c 1.8 0 3.9 0.5 3.9 3 0 2.7 -2.4 2.9 -4.4 2.9 -0.9 0 -1.8 0 -2.7 0" style="fill:#00518f"/></svg>